<svg xmlns="http://www.w3.org/2000/svg" xmlns:xlink="http://www.w3.org/1999/xlink" width="500" zoomAndPan="magnify" viewBox="0 0 375 374.999991" height="500" preserveAspectRatio="xMidYMid meet" version="1.0"><defs><g/><clipPath id="32c6fc7c79"><path d="M 137 3 L 262 3 L 262 153 L 137 153 Z M 137 3 " clip-rule="nonzero"/></clipPath><clipPath id="e291300fed"><rect x="0" width="262" y="0" height="231"/></clipPath></defs><g transform="matrix(1, 0, 0, 1, 113, 78)"><g clip-path="url(#e291300fed)"><g fill="#000000" fill-opacity="1"><g transform="translate(36.305143, 191.995397)"><g><path d="M 23.375 -6.796875 L -11.078125 -125.40625 L 59.1875 -145.8125 C 66.5 -147.925781 73.359375 -148.445312 79.765625 -147.375 C 86.171875 -146.3125 91.734375 -143.59375 96.453125 -139.21875 C 101.171875 -134.84375 104.59375 -128.992188 106.71875 -121.671875 C 109.300781 -112.765625 109.046875 -104.726562 105.953125 -97.5625 C 102.859375 -90.40625 97.28125 -84.507812 89.21875 -79.875 L 128.3125 -37.265625 L 108.75 -31.578125 L 70.625 -73.78125 L 26.4375 -60.953125 L 40.703125 -11.828125 Z M 74.34375 -93.65625 C 80.5 -95.4375 84.960938 -98.367188 87.734375 -102.453125 C 90.515625 -106.535156 91.03125 -111.597656 89.28125 -117.640625 C 87.582031 -123.472656 84.515625 -127.207031 80.078125 -128.84375 C 75.640625 -130.488281 70.34375 -130.421875 64.1875 -128.640625 L 11.25 -113.265625 L 21.40625 -78.28125 Z M 74.34375 -93.65625 "/></g></g></g><g clip-path="url(#32c6fc7c79)"><g fill="#000000" fill-opacity="1"><g transform="translate(147.59887, 159.674405)"><g><path d="M 24.328125 -7.0625 L -10.125 -125.671875 L 58.71875 -145.671875 C 65.71875 -147.703125 72.207031 -148.117188 78.1875 -146.921875 C 84.164062 -145.722656 89.320312 -142.992188 93.65625 -138.734375 C 98 -134.484375 101.1875 -128.863281 103.21875 -121.875 C 105.21875 -114.976562 105.539062 -108.515625 104.1875 -102.484375 C 102.832031 -96.460938 99.9375 -91.285156 95.5 -86.953125 C 91.070312 -82.628906 85.414062 -79.46875 78.53125 -77.46875 L 27.015625 -62.5 L 41.65625 -12.09375 Z M 73.453125 -94.9375 C 79.066406 -96.5625 82.976562 -99.21875 85.1875 -102.90625 C 87.394531 -106.601562 87.679688 -111.265625 86.046875 -116.890625 C 84.378906 -122.609375 81.703125 -126.367188 78.015625 -128.171875 C 74.335938 -129.972656 69.585938 -130.03125 63.765625 -128.34375 L 12.25 -113.375 L 21.9375 -79.96875 Z M 73.453125 -94.9375 "/></g></g></g></g></g></g><path stroke-linecap="butt" transform="matrix(0.75, 0, 0, 0.75, 16.555594, 40.756639)" fill="none" stroke-linejoin="miter" d="M -0.00120884 11.001565 L 366.774857 11.001565 " stroke="#000000" stroke-width="22" stroke-opacity="1" stroke-miterlimit="4"/><path stroke-linecap="butt" transform="matrix(0, 0.75, -0.75, 0, 33.05095, 49.011278)" fill="none" stroke-linejoin="miter" d="M 0.000588225 11.000225 L 343.120402 11.000225 " stroke="#000000" stroke-width="22" stroke-opacity="1" stroke-miterlimit="4"/><path stroke-linecap="butt" transform="matrix(0.75, 0, 0, 0.75, 16.555594, 299.25628)" fill="none" stroke-linejoin="miter" d="M -0.00120884 11.002044 L 366.774857 11.002044 " stroke="#000000" stroke-width="22" stroke-opacity="1" stroke-miterlimit="4"/><path stroke-linecap="butt" transform="matrix(0, 0.75, -0.75, 0, 291.633559, 49.010798)" fill="none" stroke-linejoin="miter" d="M 0.00122822 11.000996 L 50.839773 11.000996 " stroke="#000000" stroke-width="22" stroke-opacity="1" stroke-miterlimit="4"/><path stroke-linecap="butt" transform="matrix(0, 0.75, -0.75, 0, 291.632916, 252.763195)" fill="none" stroke-linejoin="miter" d="M -0.00196887 11.000138 L 72.998036 11.000138 " stroke="#000000" stroke-width="22" stroke-opacity="1" stroke-miterlimit="4"/></svg>